<?xml version="1.0" encoding="UTF-8"?>
<svg width="752pt" height="752pt" version="1.1" viewBox="0 0 752 752" xmlns="http://www.w3.org/2000/svg">
 <path d="m376 596.21c121.24 0 220.21-98.977 220.21-220.21 0-121.23-98.977-220.21-220.21-220.21-121.23 0-220.21 98.98-220.21 220.21 0 121.24 98.98 220.21 220.21 220.21zm-0.47266-326.3c40.727 0 73.406 32.676 73.406 73.406 0 40.727-32.676 73.406-73.406 73.406-40.727 0-73.406-32.676-73.406-73.406 0-40.727 33.152-73.406 73.406-73.406zm-131.18 264.26c27.465-54.934 76.719-91.871 133.55-91.871 55.883 0 104.66 35.52 132.6 89.508-35.988 31.254-83.348 50.195-134.5 50.195-50.199 0-96.137-17.996-131.65-47.832z"/>
</svg>
